<svg width="45" height="34" viewBox="0 0 45 34" fill="none" xmlns="http://www.w3.org/2000/svg">
<path d="M34.793 0.0426423C33.9725 0.127521 33.5482 0.250123 32.822 0.599068C31.7846 1.10834 31.0772 1.74964 30.502 2.70217C30.087 3.39063 29.9172 3.8999 29.7381 4.97503C29.606 5.76723 29.5966 6.01243 29.7003 6.57829C29.9927 8.257 30.5397 9.31327 31.6525 10.2941C32.4164 10.9731 33.0012 11.256 34.2555 11.5861C34.9062 11.7559 36.2077 11.7747 36.8396 11.6239C38.2165 11.2938 38.5277 11.1617 39.2162 10.5959C39.5934 10.2847 39.9895 9.93571 40.0932 9.82254C40.197 9.69994 40.3856 9.48302 40.5176 9.33213C41.0646 8.70969 41.5833 7.04984 41.5833 5.88983C41.5833 4.72039 41.0929 3.1077 40.5176 2.41924C40.2347 2.0703 39.5179 1.35354 39.1973 1.08948C38.9238 0.872566 37.594 0.31614 36.915 0.136952C36.3774 0.00491847 35.5098 -0.0422363 34.793 0.0426423Z" fill="#B91C1C"/>
<path d="M36.3047 13.246C35.0126 13.5383 34.2676 13.859 33.7583 14.3683C33.3433 14.7832 32.7209 15.698 32.7209 15.8961C32.7115 15.9621 32.636 16.1884 32.5323 16.3959C32.4285 16.6034 32.3531 16.8297 32.3437 16.8958C32.3437 16.9618 32.3059 17.0844 32.2588 17.1787C32.2022 17.2636 32.0607 17.6785 31.9287 18.0935C31.3628 19.8759 31.1554 20.4041 30.7215 21.2434C30.4669 21.7338 30.1368 22.3091 29.9859 22.526C29.4295 23.3371 28.0337 24.3651 26.968 24.7423C26.6285 24.8649 26.3173 24.9969 26.2607 25.0347C26.0721 25.1667 24.5537 25.4874 23.8652 25.5345C22.9221 25.6005 22.8184 25.7043 22.8184 26.5813C22.8184 27.4396 22.9599 27.5716 23.7804 27.4773C24.714 27.3735 24.8272 27.5056 24.9309 28.7033C24.9687 29.09 25.0252 29.5615 25.063 29.7407L25.1384 30.0708L25.8552 30.0991C26.2984 30.1179 26.7794 30.0708 27.0812 29.9859C27.9677 29.7407 29.1749 29.288 29.6558 29.0334C31.1271 28.2412 31.2119 28.194 31.3345 28.3166C31.4194 28.4015 31.4477 29.0994 31.4572 30.929C31.4666 33.3716 31.4666 33.4376 31.6741 33.6357L31.8815 33.8432L44.5285 33.8055L45 33.3716L44.9528 31.0139C44.8963 28.4675 44.7548 25.9589 44.6133 25.1195C44.519 24.6103 44.3115 23.3371 44.1418 22.2431C43.9815 21.2057 43.1421 18.4613 42.68 17.4522C42.2933 16.6128 41.6237 15.566 41.1427 15.0284C40.7278 14.5663 39.4923 13.6138 39.3037 13.6138C39.2565 13.6138 39.0396 13.5289 38.8227 13.4346C38.3417 13.2177 36.9177 13.1139 36.3047 13.246Z" fill="#B91C1C"/>
<path d="M10.203 0.0426718C11.0235 0.12755 11.4479 0.250153 12.1741 0.599098C13.2115 1.10837 13.9188 1.74967 14.4941 2.7022C14.909 3.39066 15.0788 3.89993 15.258 4.97506C15.39 5.76726 15.3995 6.01246 15.2957 6.57832C15.0034 8.25703 14.4564 9.3133 13.3435 10.2941C12.5796 10.9731 11.9949 11.2561 10.7406 11.5862C10.0898 11.7559 8.78836 11.7748 8.15648 11.6239C6.77957 11.2938 6.46835 11.1618 5.77989 10.5959C5.40265 10.2847 5.00655 9.93574 4.90281 9.82257C4.79907 9.69997 4.61045 9.48305 4.47842 9.33216C3.93142 8.70972 3.41272 7.04987 3.41272 5.88986C3.41272 4.72042 3.90313 3.10773 4.47842 2.41927C4.76134 2.07033 5.4781 1.35357 5.79875 1.08951C6.07225 0.872596 7.40201 0.316169 8.08104 0.136981C8.6186 0.004948 9.48625 -0.0422067 10.203 0.0426718Z" fill="#EF4444"/>
<path d="M8.69534 13.246C9.98738 13.5384 10.7324 13.859 11.2417 14.3683C11.6567 14.7833 12.2791 15.6981 12.2791 15.8961C12.2885 15.9621 12.364 16.1885 12.4677 16.396C12.5715 16.6035 12.6469 16.8298 12.6563 16.8958C12.6563 16.9618 12.6941 17.0844 12.7412 17.1787C12.7978 17.2636 12.9393 17.6786 13.0713 18.0935C13.6372 19.876 13.8446 20.4041 14.2785 21.2435C14.5331 21.7339 14.8632 22.3092 15.0141 22.5261C15.5705 23.3372 16.9663 24.3651 18.032 24.7424C18.3715 24.865 18.6827 24.997 18.7393 25.0347C18.9279 25.1668 21.4224 25.6147 22.1109 25.6619C22.7475 25.7326 22.4292 25.5982 22.4292 26.4753C22.4292 27.3335 22.5353 27.6424 22.8182 27.7131C23.2426 27.9607 24.0914 27.4302 24.4097 27.8899C24.5511 28.279 24.5158 28.7741 24.5511 29.2339L24.6219 29.729L24.728 30.0826L19.1448 30.0991C18.7016 30.118 18.2206 30.0709 17.9188 29.986C17.0323 29.7408 15.8251 29.2881 15.3442 29.0334C13.8729 28.2412 13.788 28.1941 13.6654 28.3167C13.5806 28.4016 13.5523 29.0995 13.5428 30.9291C13.5334 33.3717 13.5334 33.4377 13.3259 33.6357L13.1185 33.8432L0.471547 33.8055L0 33.3717L0.047154 31.0139C0.10374 28.4676 0.245203 25.959 0.386667 25.1196C0.480977 24.6103 0.688459 23.3372 0.858216 22.2432C1.01854 21.2058 1.8579 18.4613 2.32001 17.4522C2.70668 16.6129 3.37628 15.566 3.85726 15.0285C4.27222 14.5664 5.50767 13.6138 5.69629 13.6138C5.74345 13.6138 5.96036 13.529 6.17727 13.4347C6.65825 13.2177 8.08232 13.114 8.69534 13.246Z" fill="#EF4444"/>
</svg>
